<svg width="1200" height="780" viewBox="0 0 1200 780" xmlns="http://www.w3.org/2000/svg" font-family="ui-sans-serif, system-ui, -apple-system, Segoe UI, Roboto, Helvetica, Arial, sans-serif">
  <rect width="1200" height="780" fill="#ffffff"/>
  <!-- header -->
  <line x1="0" y1="64" x2="1200" y2="64" stroke="#e5e7eb"/>
  <text x="40" y="40" font-size="22" font-weight="800" fill="#0f172a">Caddy UI</text>
  <line x1="150" y1="22" x2="150" y2="42" stroke="#e5e7eb"/>
  <text x="176" y="40" font-size="16" font-weight="600" fill="#0f172a">Dashboard</text>
  <text x="290" y="40" font-size="16" fill="#64748b">HTTP</text>
  <text x="360" y="40" font-size="16" fill="#64748b">Config</text>
  <text x="446" y="40" font-size="16" fill="#64748b">Help</text>

  <!-- Entrypoints -->
  <text x="40" y="112" font-size="24" font-weight="700" fill="#0f172a">Entrypoints</text>
  <g>
    <rect x="40" y="132" width="262" height="84" rx="12" fill="#ffffff" stroke="#e5e7eb"/>
    <text x="62" y="166" font-size="13" fill="#94a3b8">HTTP</text>
    <text x="62" y="196" font-size="22" font-family="ui-monospace, SFMono-Regular, Menlo, monospace" fill="#0f172a">:443</text>
  </g>
  <g>
    <rect x="316" y="132" width="262" height="84" rx="12" fill="#ffffff" stroke="#e5e7eb"/>
    <text x="338" y="166" font-size="13" fill="#94a3b8">HTTP</text>
    <text x="338" y="196" font-size="22" font-family="ui-monospace, SFMono-Regular, Menlo, monospace" fill="#0f172a">:80</text>
  </g>

  <!-- status cards -->
  <g>
    <rect x="40" y="232" width="538" height="160" rx="12" fill="#ffffff" stroke="#e5e7eb"/>
    <text x="62" y="266" font-size="15" font-weight="600" fill="#0f172a">HTTP Routers</text>
    <text x="556" y="266" font-size="13" text-anchor="end" fill="#64748b">Explore →</text>
    <circle cx="68" cy="296" r="5" fill="#10b981"/><text x="82" y="301" font-size="14" fill="#334155">Success</text>
    <text x="556" y="301" font-size="13" text-anchor="end" fill="#64748b">6 (100%)</text>
    <rect x="62" y="312" width="494" height="2.5" fill="#0f172a"/>
    <circle cx="68" cy="336" r="5" fill="#f59e0b"/><text x="82" y="341" font-size="14" fill="#334155">Warnings</text>
    <text x="556" y="341" font-size="13" text-anchor="end" fill="#64748b">0 (0%)</text>
    <line x1="62" y1="352" x2="556" y2="352" stroke="#e5e7eb"/>
    <circle cx="68" cy="376" r="5" fill="#ef4444"/><text x="82" y="381" font-size="14" fill="#334155">Errors</text>
    <text x="556" y="381" font-size="13" text-anchor="end" fill="#64748b">0 (0%)</text>
  </g>
  <g>
    <rect x="598" y="232" width="562" height="160" rx="12" fill="#ffffff" stroke="#e5e7eb"/>
    <text x="620" y="266" font-size="15" font-weight="600" fill="#0f172a">Services</text>
    <text x="1138" y="266" font-size="13" text-anchor="end" fill="#64748b">Explore →</text>
    <circle cx="626" cy="296" r="5" fill="#10b981"/><text x="640" y="301" font-size="14" fill="#334155">Success</text>
    <text x="1138" y="301" font-size="13" text-anchor="end" fill="#64748b">7 (70%)</text>
    <rect x="620" y="312" width="362" height="2.5" fill="#0f172a"/>
    <circle cx="626" cy="336" r="5" fill="#f59e0b"/><text x="640" y="341" font-size="14" fill="#334155">Warnings</text>
    <text x="1138" y="341" font-size="13" text-anchor="end" fill="#64748b">1 (10%)</text>
    <rect x="620" y="352" width="60" height="2.5" fill="#0f172a"/>
    <circle cx="626" cy="376" r="5" fill="#ef4444"/><text x="640" y="381" font-size="14" fill="#334155">Errors</text>
    <text x="1138" y="381" font-size="13" text-anchor="end" fill="#64748b">2 (20%)</text>
    <rect x="620" y="392" width="120" height="2.5" fill="#0f172a"/>
  </g>

  <!-- Services & Routes -->
  <text x="40" y="442" font-size="24" font-weight="700" fill="#0f172a">Services &amp; Routes</text>
  <g font-family="ui-sans-serif, system-ui, sans-serif">
    <!-- row template -->
    <g transform="translate(40,460)">
      <rect width="1120" height="58" rx="12" fill="#ffffff" stroke="#e5e7eb"/>
      <text x="24" y="34" font-size="15" font-weight="500" fill="#0f172a">coolify.hexlane.xyz</text>
      <text x="24" y="50" font-size="12" fill="#94a3b8" font-family="ui-monospace, monospace">Proxy to: 192.168.1.233:8000</text>
      <rect x="980" y="16" width="116" height="26" rx="13" fill="#0f172a"/><text x="1038" y="33" font-size="12" text-anchor="middle" fill="#fff">reverse_proxy</text>
    </g>
    <g transform="translate(40,526)">
      <rect width="1120" height="58" rx="12" fill="#ffffff" stroke="#e5e7eb"/>
      <text x="24" y="34" font-size="15" font-weight="500" fill="#0f172a">plex.hexlane.xyz</text>
      <text x="24" y="50" font-size="12" fill="#94a3b8" font-family="ui-monospace, monospace">Proxy to: 192.168.1.177:32400</text>
      <rect x="980" y="16" width="116" height="26" rx="13" fill="#0f172a"/><text x="1038" y="33" font-size="12" text-anchor="middle" fill="#fff">reverse_proxy</text>
    </g>
    <g transform="translate(40,592)">
      <rect width="1120" height="58" rx="12" fill="#ffffff" stroke="#e5e7eb"/>
      <text x="24" y="34" font-size="15" font-weight="500" fill="#0f172a">immich.hexlane.xyz</text>
      <text x="24" y="50" font-size="12" fill="#94a3b8" font-family="ui-monospace, monospace">Proxy to: 192.168.1.177:2283</text>
      <rect x="980" y="16" width="116" height="26" rx="13" fill="#0f172a"/><text x="1038" y="33" font-size="12" text-anchor="middle" fill="#fff">reverse_proxy</text>
    </g>
    <g transform="translate(40,658)">
      <rect width="1120" height="58" rx="12" fill="#ffffff" stroke="#e5e7eb"/>
      <text x="24" y="34" font-size="15" font-weight="500" fill="#0f172a">grafana.hexlane.xyz</text>
      <text x="24" y="50" font-size="12" fill="#94a3b8" font-family="ui-monospace, monospace">Proxy to: 192.168.1.177:3001</text>
      <rect x="980" y="16" width="116" height="26" rx="13" fill="#0f172a"/><text x="1038" y="33" font-size="12" text-anchor="middle" fill="#fff">reverse_proxy</text>
    </g>
    <g transform="translate(40,724)">
      <rect width="1120" height="48" rx="12" fill="#ffffff" stroke="#e5e7eb"/>
      <text x="24" y="30" font-size="15" font-weight="500" fill="#0f172a">jellyfin.hexlane.xyz</text>
      <rect x="980" y="11" width="116" height="26" rx="13" fill="#0f172a"/><text x="1038" y="28" font-size="12" text-anchor="middle" fill="#fff">reverse_proxy</text>
    </g>
  </g>
</svg>
